{"title":"The.Fourth.Kind 2010.DVDSCR.1048x512.Xvid.Spanish subs.MKV vykto","uid":5301008,"size":2321175003,"categoryP":"video","categoryS":"movies","magnet":"?xt=urn:btih:5a8745a4f9fd2844f4310af98cde9055abe1e844&amp;dn=The.Fourth.Kind+2010.DVDSCR.1048x512.Xvid.Spanish+subs.MKV+vykto&amp;tr=udp%3A%2F%2Ftracker.openbittorrent.com%3A80&amp;tr=udp%3A%2F%2Fopen.demonii.com%3A1337&amp;tr=udp%3A%2F%2Ftracker.coppersurfer.tk%3A6969&amp;tr=udp%3A%2F%2Fexodus.desync.com%3A6969","seeders":3,"leechers":0,"uploader":"vyktor123","files":1,"time":1264223731,"description":"Type: MKV\nVideo: DivX 5 1048x512 25.00fps [Undetermined (Video 1)]\nAudio: MPEG Audio Layer 3 48000Hz stereo English\nSubs: Spanish\nLength: 01:37:51\nFile size : 2.16 GiB\nVideo Size: 1048 x 512\n\n\n      Format : Matroska \n      Duration : 1h 37mn\n      Overall bit rate : 3 163 Kbps\n      Format : MPEG-4 Visual\n      Format settings, BVOP : Yes\n      Format settings, QPel : No\n      Format settings, GMC : No warppoints\n      Format settings, Matrix : Default (H.263)\n      Codec ID : DX50\n      Codec ID/Hint : DivX 5\n      Duration : 1h 37mn\n      Bit rate : 2 940 Kbps\n      Width : 1 048 pixels\n      Height : 512 pixels\n      Display aspect ratio : 2.047\n      Frame rate : 25.000 fps\n      Resolution : 24 bits\n      Colorimetry : 4:2:0\n      Scan type : Progressive\n      Bits/(Pixel*Frame) : 0.219\n      Stream size : 2.01 GiB (93%)\n      Writing library : DivX 6.8.2 (UTC 2008-05-17)\n   Audio #2\n      ID : 2\n      Format : MPEG Audio\n      Format version : Version 1\n      Format profile : Layer 3\n      Codec ID : A_MPEG/L3\n      Codec ID/Hint : MP3\n      Duration : 1h 37mn\n      Bit rate mode : Constant\n      Bit rate : 160 Kbps\n      Channel(s) : 2 channels\n      Sampling rate : 48.0 KHz\n      Resolution : 16 bits\n      Stream size : 112 MiB (5%)\n\nNote: is the same from The.Fourth.Kind 2010.DVDSCR.nl subs 2Lions-Team, I just put together the 5 files .VOB size 4.31 GB in one file size 2.16 GB with divxconverter an added spanish subs. I dont think is a DVDSCR\n","torrent":{"xt":"urn:btih:5a8745a4f9fd2844f4310af98cde9055abe1e844","amp;dn":"The.Fourth.Kind+2010.DVDSCR.1048x512.Xvid.Spanish+subs.MKV+vykto","amp;tr":["udp%3A%2F%2Ftracker.openbittorrent.com%3A80","udp%3A%2F%2Fopen.demonii.com%3A1337","udp%3A%2F%2Ftracker.coppersurfer.tk%3A6969","udp%3A%2F%2Fexodus.desync.com%3A6969"],"infoHash":"5a8745a4f9fd2844f4310af98cde9055abe1e844","infoHashBuffer":{"type":"Buffer","data":[90,135,69,164,249,253,40,68,244,49,10,249,140,222,144,85,171,225,232,68]},"announce":[],"urlList":[]}}